<svg xmlns="http://www.w3.org/2000/svg" width="256" height="256" fill="none" viewBox="0 0 256 256" id="stripe">
  <rect width="224" height="224" x="16" y="16" fill="url(#paint0_linear_531_13672)" rx="70"></rect>
  <path fill="#635BFF" fill-rule="evenodd" d="M119.525 103.736C119.525 98.5934 123.73 96.6154 130.694 96.6154C140.68 96.6154 153.294 99.6483 163.28 105.055V74.0659C152.374 69.7143 141.6 68 130.694 68C104.02 68 86.2812 81.978 86.2812 105.319C86.2812 141.714 136.212 135.912 136.212 151.604C136.212 157.67 130.956 159.648 123.598 159.648C112.692 159.648 98.764 155.165 87.7266 149.099V180.484C99.9466 185.758 112.298 188 123.598 188C150.929 188 169.719 174.418 169.719 150.813C169.587 111.516 119.525 118.505 119.525 103.736Z" clip-rule="evenodd"></path>
  <defs>
    <linearGradient id="paint0_linear_531_13672" x1="16" x2="208" y1="16" y2="240" gradientUnits="userSpaceOnUse">
      <stop stop-color="#fff"></stop>
      <stop offset="1" stop-color="#ACCCFF"></stop>
    </linearGradient>
  </defs>
</svg>
